<svg id="Vrstva_1" xmlns="http://www.w3.org/2000/svg" viewBox="0 0 1904.833 260.474"><path d="M349.052 98.619c13.434 13.106 20.15 32.55 20.15 58.32v100.913H318.09v-93.05c0-13.976-3.061-24.409-9.174-31.29-6.118-6.88-14.964-10.32-26.539-10.32-12.891 0-23.155 3.987-30.798 11.958-7.649 7.976-11.467 19.822-11.467 35.55v87.152H189V14.744h51.112V99.93c6.768-6.767 14.959-11.958 24.573-15.563 9.609-3.604 20.094-5.406 31.454-5.406 21.838 0 39.48 6.553 52.913 19.658zm102.222 150.223c-14.745-7.75-26.268-18.512-34.566-32.272-8.303-13.761-12.451-29.376-12.451-46.853 0-17.473 4.147-33.092 12.451-46.853 8.299-13.76 19.821-24.516 34.566-32.272 14.743-7.751 31.396-11.632 49.964-11.632 18.562 0 35.164 3.881 49.8 11.632 14.632 7.756 26.099 18.512 34.402 32.272 8.299 13.761 12.451 29.38 12.451 46.853 0 17.477-4.152 33.092-12.451 46.853-8.303 13.76-19.771 24.521-34.402 32.272-14.636 7.756-31.238 11.632-49.8 11.632-18.568 0-35.221-3.876-49.964-11.632zm82.236-43.576c8.406-8.846 12.615-20.693 12.615-35.549 0-14.852-4.209-26.702-12.615-35.549-8.411-8.846-19.166-13.27-32.272-13.27s-23.918 4.423-32.436 13.27c-8.52 8.846-12.779 20.697-12.779 35.549 0 14.856 4.259 26.702 12.779 35.549 8.518 8.846 19.331 13.27 32.436 13.27s23.861-4.423 32.272-13.27zm376.786-106.81c12.993 12.998 19.495 32.493 19.495 58.483v100.913h-51.112v-93.05c0-13.976-2.898-24.409-8.683-31.29-5.79-6.88-14.037-10.32-24.737-10.32-12.015 0-21.516 3.88-28.504 11.631-6.993 7.756-10.484 19.28-10.484 34.567v88.463h-51.112v-93.05c0-27.737-11.14-41.61-33.419-41.61-11.795 0-21.19 3.88-28.177 11.631-6.994 7.756-10.485 19.28-10.485 34.567v88.463h-51.112V81.583h48.819v20.314c6.553-7.423 14.58-13.105 24.081-17.037 9.501-3.932 19.93-5.897 31.29-5.897 12.451 0 23.698 2.457 33.746 7.372 10.045 4.915 18.128 12.072 24.245 21.461 7.208-9.175 16.326-16.269 27.358-21.297 11.027-5.022 23.099-7.536 36.204-7.536 22.061-.002 39.589 6.5 52.587 19.493zm67.985-49.637c-5.898-5.457-8.846-12.231-8.846-20.314 0-8.078 2.948-14.852 8.846-20.314C984.177 2.734 991.821 0 1001.214 0c9.389 0 17.038 2.621 22.935 7.864 5.898 5.242 8.846 11.795 8.846 19.658 0 8.519-2.948 15.563-8.846 21.133-5.897 5.569-13.545 8.355-22.935 8.355-9.393 0-17.037-2.729-22.933-8.191zm-2.622 32.764h51.112v176.27h-51.112V81.583zm98.618-66.839h51.112v243.109h-51.112V14.744zm101.239 34.075c-5.898-5.457-8.846-12.231-8.846-20.314 0-8.078 2.948-14.852 8.846-20.314C1181.413 2.734 1189.056 0 1198.45 0c9.389 0 17.038 2.621 22.935 7.864 5.898 5.242 8.846 11.795 8.846 19.658 0 8.519-2.948 15.563-8.846 21.133-5.897 5.569-13.546 8.355-22.935 8.355-9.394 0-17.037-2.729-22.934-8.191zm-2.622 32.764h51.112v176.27h-51.112V81.583zm270.303 102.551h-133.35c2.401 10.925 8.079 19.551 17.038 25.884 8.954 6.337 20.094 9.501 33.419 9.501 9.174 0 17.308-1.362 24.41-4.096 7.095-2.728 13.704-7.044 19.822-12.941l27.194 29.488c-16.602 19.003-40.848 28.504-72.736 28.504-19.879 0-37.464-3.876-52.75-11.632-15.292-7.75-27.087-18.512-35.385-32.272-8.303-13.761-12.451-29.376-12.451-46.853 0-17.253 4.096-32.815 12.286-46.689 8.192-13.868 19.439-24.68 33.748-32.436 14.303-7.751 30.307-11.632 47.999-11.632 17.253 0 32.872 3.716 46.852 11.14 13.977 7.427 24.953 18.076 32.929 31.944 7.971 13.874 11.959 29.979 11.959 48.328-.001.656-.33 5.244-.984 13.762zm-119.59-56.682c-7.863 6.553-12.671 15.512-14.416 26.866h86.825c-1.751-11.14-6.553-20.037-14.416-26.702-7.864-6.661-17.478-9.994-28.833-9.994-11.58.001-21.296 3.278-29.16 9.83zm153.499 126.797c-3.389-3.491-5.078-7.75-5.078-12.778 0-5.022 1.689-9.225 5.078-12.614 3.384-3.384 7.48-5.079 12.286-5.079 4.802 0 8.954 1.695 12.451 5.079 3.491 3.389 5.242 7.592 5.242 12.614 0 5.028-1.751 9.286-5.242 12.778-3.497 3.497-7.649 5.242-12.451 5.242-4.806 0-8.902-1.745-12.286-5.242zm224.595-75.358h-144.162c1.31 17.913 8.191 32.386 20.641 43.413 12.451 11.032 28.177 16.545 47.18 16.545 10.7 0 20.528-1.909 29.488-5.734 8.954-3.819 16.71-9.445 23.262-16.874l13.106 15.072c-7.649 9.174-17.201 16.168-28.669 20.97-11.467 4.806-24.082 7.207-37.842 7.207-17.693 0-33.369-3.767-47.017-11.303-13.653-7.536-24.301-17.964-31.944-31.29-7.649-13.321-11.467-28.393-11.467-45.214 0-16.818 3.655-31.89 10.976-45.215 7.316-13.32 17.364-23.697 30.142-31.125 12.778-7.423 27.138-11.14 43.085-11.14 15.941 0 30.25 3.717 42.92 11.14 12.665 7.429 22.608 17.749 29.816 30.962 7.207 13.218 10.812 28.34 10.812 45.378l-.327 7.208zm-124.994-58.81c-11.253 10.597-17.642 24.409-19.167 41.447h122.21c-1.531-17.038-7.92-30.85-19.167-41.447-11.252-10.593-25.284-15.891-42.101-15.891-16.604 0-30.529 5.298-41.775 15.891zm328.126-34.567v172.339h-22.279v-31.454c-6.118 10.485-14.53 18.624-25.229 24.41-10.705 5.79-22.935 8.682-36.696 8.682-22.499 0-40.249-6.276-53.241-18.839-12.998-12.558-19.495-30.962-19.495-55.208v-99.93h23.262v97.637c0 18.133 4.475 31.893 13.434 41.282 8.954 9.394 21.732 14.088 38.334 14.088 18.127 0 32.436-5.514 42.92-16.546 10.485-11.026 15.728-26.375 15.728-46.033V85.514h23.262zM72.021 14.812H162v26.953H72.021zM36 68.766h126v26.953H36zm-36 54h162v26.953H0zm36.125 54H162v26.953H36.125zM0 230.766h162v26.953H0z" fill="#FFF"/></svg>